<?xml version="1.0" standalone="no"?>
<!DOCTYPE svg PUBLIC "-//W3C//DTD SVG 20010904//EN"
 "http://www.w3.org/TR/2001/REC-SVG-20010904/DTD/svg10.dtd">
<svg version="1.0" xmlns="http://www.w3.org/2000/svg"
 width="178.000000pt" height="178.000000pt" viewBox="0 0 178.000000 178.000000"
 preserveAspectRatio="xMidYMid meet">
<metadata>
Created by potrace 1.14, written by Peter Selinger 2001-2017
</metadata>
<g transform="translate(0.000000,178.000000) scale(0.100000,-0.100000)"
fill="#000000" stroke="none">
<path d="M20 1565 c0 -192 6 -245 23 -202 4 7 6 8 6 1 1 -6 -6 -17 -14 -24
-17 -14 -21 -45 -4 -34 8 5 8 1 0 -14 -6 -11 -10 -61 -10 -111 2 -83 3 -89 18
-73 9 10 12 12 7 5 -5 -7 -5 -13 0 -13 5 0 1 -5 -8 -11 -11 -6 -18 -22 -18
-39 0 -36 13 -39 28 -6 7 16 19 24 31 23 19 -1 19 -2 4 -19 -9 -10 -18 -16
-21 -13 -3 2 -13 -7 -24 -21 -20 -25 -18 -61 3 -48 8 4 9 3 5 -5 -4 -6 -11 -9
-16 -6 -13 8 -6 -98 8 -123 11 -18 16 -20 33 -12 23 13 16 32 -8 23 -10 -4
-14 -2 -10 4 4 6 18 11 33 11 18 0 22 -3 13 -9 -13 -8 -5 -13 14 -10 5 1 6 -3
2 -9 -3 -6 -10 -8 -15 -5 -4 3 -11 -2 -14 -11 -3 -9 -11 -12 -18 -8 -8 5 -9 2
-4 -12 4 -10 4 -15 0 -11 -4 4 -13 -1 -21 -11 -10 -13 -13 -14 -11 -2 2 8 7
18 12 21 5 4 2 17 -6 28 -14 20 -16 14 -16 -79 0 -87 2 -100 16 -98 9 2 18 -5
20 -17 4 -16 2 -17 -10 -7 -17 13 -28 6 -28 -17 0 -14 2 -14 10 -1 6 9 10 10
10 3 0 -6 -4 -14 -9 -17 -5 -3 -9 -27 -9 -52 -1 -42 0 -45 12 -28 8 10 12 23
9 29 -4 5 -3 7 2 3 4 -4 15 -2 24 4 12 10 12 8 -1 -8 -20 -23 -24 -39 -7 -28
12 7 1 -16 -22 -46 -9 -13 -10 -12 -5 3 3 9 1 17 -4 17 -16 0 -11 -32 7 -54
17 -20 17 -20 0 -7 -15 12 -17 11 -14 -7 2 -12 6 -25 10 -28 4 -4 7 -12 7 -18
0 -6 -4 -4 -10 4 -6 9 -8 -25 -8 -97 1 -62 6 -109 11 -106 4 3 3 -4 -4 -15
-10 -16 -10 -23 0 -35 8 -10 9 -17 1 -22 -16 -10 -12 -71 6 -86 13 -10 17 -10
24 1 5 8 6 18 3 24 -3 5 -1 6 5 2 6 -4 8 -14 5 -24 -6 -15 -5 -16 12 -2 10 8
16 10 12 3 -5 -8 5 -12 35 -11 36 0 39 2 20 9 -13 5 -29 6 -35 3 -8 -5 -9 -4
-2 4 11 11 65 5 65 -8 0 -5 34 -8 75 -9 49 0 75 3 75 10 0 7 6 6 17 -2 11 -10
14 -10 9 -1 -9 15 35 17 51 1 8 -8 22 -4 49 14 22 13 46 27 54 30 8 4 3 5 -12
2 -16 -3 -28 -4 -28 -1 0 2 27 33 61 67 61 64 124 139 117 139 -2 0 -37 -38
-78 -85 -41 -47 -79 -85 -85 -85 -5 0 -28 -9 -49 -21 -52 -28 -54 -19 -4 19
23 18 38 32 34 32 -8 0 55 80 107 136 28 31 30 31 74 20 81 -21 79 -33 -22
-138 -50 -51 -106 -103 -125 -116 -26 -17 -30 -21 -13 -19 11 2 27 8 35 14 21
17 56 25 63 14 3 -6 0 -9 -7 -6 -8 3 -22 -1 -33 -9 -18 -13 -18 -14 7 -11 23
3 78 31 78 41 0 2 -8 1 -17 -3 -10 -3 20 33 67 81 67 68 91 86 113 86 33 0 27
-20 -6 -21 l-22 0 23 -9 c12 -5 29 -7 38 -3 12 4 15 2 12 -8 -5 -15 -29 -20
-38 -7 -3 4 -44 -32 -90 -80 -56 -57 -62 -65 -19 -24 49 48 68 60 72 49 6 -15
-15 -42 -25 -32 -2 3 -15 -7 -29 -22 -13 -15 -16 -21 -6 -13 16 12 20 12 28
-1 5 -8 9 -18 9 -24 0 -5 -5 -3 -10 5 -6 9 -10 10 -10 3 0 -25 20 -22 52 7 18
17 54 45 80 62 51 34 58 41 30 32 -11 -4 -9 1 8 15 39 34 71 48 151 70 41 10
82 22 92 26 27 11 20 27 -10 21 -16 -3 -84 -7 -153 -8 -106 -3 -129 0 -150 15
-14 9 -24 21 -22 25 2 4 -9 10 -25 14 -102 25 -123 32 -149 53 -16 13 -26 26
-23 29 14 15 169 12 312 -4 84 -10 204 -21 267 -25 74 -5 123 -13 138 -23 12
-8 24 -13 26 -11 11 11 -28 42 -95 76 -58 30 -74 42 -72 58 1 11 0 14 -3 8 -8
-18 -27 -16 -55 5 -16 12 -42 17 -80 17 -53 0 -55 1 -57 28 -1 15 2 27 8 27 5
0 10 -4 10 -10 0 -5 6 -7 13 -4 7 2 22 -4 32 -16 10 -11 23 -20 28 -20 6 0 7
3 4 6 -10 11 11 41 33 47 27 7 26 -8 -2 -27 -12 -9 -19 -16 -15 -16 4 0 21 9
36 21 l28 21 42 -21 c22 -12 41 -19 41 -16 0 3 -35 22 -77 42 -43 20 -82 38
-87 41 -5 3 -6 0 -2 -7 4 -6 -1 -22 -12 -36 -19 -24 -20 -24 -36 -6 -12 13
-13 19 -4 17 7 0 14 4 16 9 2 6 11 19 20 30 10 12 6 10 -11 -5 -15 -13 -42
-25 -60 -26 -18 -1 -41 -5 -52 -8 -110 -31 -114 -31 -145 -5 -14 11 -20 18
-13 15 7 -4 11 1 10 13 -1 13 -5 17 -12 11 -6 -5 -20 -7 -30 -6 -11 2 -27 -1
-35 -7 -8 -6 -12 -7 -8 -3 4 5 1 14 -7 20 -10 7 -12 16 -5 26 7 12 12 10 29
-9 12 -13 21 -18 21 -11 0 10 3 10 14 1 10 -9 16 -9 21 -1 5 8 14 6 30 -4 31
-21 91 -26 87 -8 -1 8 1 11 6 8 5 -3 22 8 38 25 l28 29 -32 -11 c-18 -6 -30
-15 -27 -19 3 -4 -5 -6 -17 -2 -12 3 -19 1 -15 -4 3 -5 -3 -10 -14 -10 -10 0
-21 8 -24 17 -9 27 -2 79 11 79 7 0 11 -12 9 -28 -2 -22 2 -28 16 -27 29 2 51
27 46 52 -2 12 -1 20 4 17 11 -7 89 70 89 88 0 9 6 28 14 43 8 15 12 33 10 40
-3 7 0 16 7 21 8 5 11 2 7 -7 -3 -9 3 -26 13 -40 l19 -24 -5 35 c-6 32 -5 34
8 15 8 -10 13 -25 10 -31 -2 -7 0 -15 6 -19 6 -3 9 0 5 8 -3 8 0 18 7 23 8 5
11 2 6 -8 -3 -9 2 -26 11 -39 15 -22 15 -23 0 -11 -14 11 -18 10 -28 -7 -9
-17 -8 -20 6 -14 14 5 15 3 5 -18 -11 -23 -11 -23 3 -5 47 59 67 75 83 70 15
-5 15 -3 -1 7 -16 10 -22 9 -37 -9 -16 -20 -18 -20 -25 -4 -4 9 -8 24 -8 32
-1 8 -6 15 -13 15 -17 0 -26 12 -18 25 4 7 14 0 28 -17 11 -15 23 -31 27 -36
4 -4 15 3 26 15 11 13 12 18 3 10 -13 -10 -19 -8 -35 11 -22 24 -49 77 -46 90
1 4 -18 16 -43 27 -43 18 -57 41 -35 55 6 3 10 -3 10 -15 0 -11 8 -23 18 -26
19 -6 19 -6 95 -57 32 -21 65 -41 75 -44 15 -6 15 -5 3 10 -7 9 -20 17 -27 17
-24 0 -104 81 -104 105 0 26 50 98 84 120 13 9 46 18 74 22 29 3 49 10 46 15
-3 5 -22 6 -42 3 -25 -4 -33 -3 -23 3 10 7 10 11 1 17 -6 4 -17 -1 -25 -11 -7
-11 -17 -16 -21 -11 -4 4 -2 7 4 7 6 0 9 7 6 15 -7 18 18 20 49 3 21 -10 21
-10 7 7 -11 14 -12 19 -2 22 6 3 12 9 12 14 0 6 -8 6 -19 -1 -17 -9 -19 -7
-16 11 3 15 0 19 -10 15 -8 -3 -17 -1 -20 4 -4 6 -11 10 -16 10 -6 0 -8 -4 -5
-9 3 -5 -2 -15 -12 -22 -15 -12 -16 -12 -5 2 7 9 10 19 6 23 -4 4 3 9 15 12
12 4 24 15 28 26 3 12 11 17 20 14 8 -3 13 -2 10 3 -3 5 4 20 15 35 11 14 16
26 11 26 -5 0 -14 -11 -21 -24 -9 -16 -19 -22 -33 -18 -13 3 -19 0 -18 -9 4
-28 0 -37 -17 -34 -12 1 -17 10 -15 24 2 18 -2 21 -18 16 -15 -5 -18 -3 -14 9
6 17 -4 20 -30 10 -9 -3 -13 -11 -9 -18 4 -6 -2 -4 -12 4 -15 12 -17 12 -10 1
6 -11 4 -13 -8 -8 -9 3 -19 2 -23 -4 -3 -5 -29 -21 -57 -35 -45 -22 -48 -24
-19 -20 23 4 31 2 26 -5 -4 -7 -1 -10 7 -7 8 3 13 11 11 17 -1 7 2 9 9 5 9 -5
5 -13 -10 -26 -13 -10 -27 -16 -31 -13 -5 3 -11 1 -15 -5 -4 -6 -11 -8 -16 -5
-10 7 -25 -22 -16 -32 3 -3 20 5 36 17 17 12 31 18 31 14 0 -4 11 3 25 16 13
12 22 26 20 30 -2 4 2 7 10 7 17 0 28 -24 14 -32 -5 -4 -6 -12 -2 -18 5 -9 3
-9 -8 0 -11 9 -18 8 -31 -1 -10 -7 -14 -17 -10 -22 4 -4 -2 -2 -12 6 -18 14
-19 13 -14 -8 5 -18 4 -21 -6 -13 -9 8 -13 7 -13 -4 0 -8 5 -15 11 -15 6 0 3
-5 -7 -11 -14 -8 -15 -14 -7 -32 10 -20 10 -20 -3 -4 -17 21 -31 23 -24 3 3
-8 1 -17 -6 -20 -9 -3 -8 -5 1 -5 7 -1 11 -5 8 -10 -3 -4 3 -16 14 -26 15 -14
23 -15 33 -6 8 6 18 7 22 3 5 -4 5 -2 1 5 -4 7 -14 9 -23 6 -11 -4 -14 -3 -9
6 5 7 16 9 28 5 17 -5 20 -3 15 11 -4 9 -7 19 -7 21 0 3 -5 2 -12 -2 -6 -4 -8
-3 -4 4 3 6 -2 15 -11 21 -10 6 -13 11 -6 11 6 0 15 -5 18 -11 5 -7 13 -4 26
7 10 9 16 21 12 27 -3 6 -1 7 6 3 9 -6 9 -11 1 -21 -8 -10 -8 -15 0 -20 6 -4
17 1 25 11 9 12 10 21 3 25 -7 4 -6 9 1 13 6 4 11 2 11 -4 0 -6 5 -8 13 -3 18
11 36 12 42 3 3 -5 -3 -7 -12 -5 -23 3 -53 -23 -53 -45 0 -12 -7 -16 -25 -15
-14 2 -25 -1 -25 -7 0 -5 9 -6 20 -3 13 4 20 2 20 -7 1 -7 7 -2 16 12 15 25
15 25 8 1 -9 -32 15 -24 41 16 18 26 23 28 35 15 11 -13 11 -14 -1 -10 -14 5
-49 -31 -49 -51 0 -9 -5 -9 -20 -1 -11 6 -20 8 -20 4 0 -3 -6 -1 -14 5 -10 9
-16 8 -26 -3 -6 -9 -9 -20 -5 -26 4 -6 1 -9 -7 -8 -7 2 -13 -6 -13 -17 -1 -11
-7 -19 -13 -17 -7 1 -24 3 -37 4 -20 2 -22 5 -14 23 10 19 10 19 -5 1 -12 -15
-13 -23 -4 -33 13 -17 4 -28 -14 -17 -18 12 -100 15 -93 5 2 -5 -9 -14 -25
-21 -16 -7 -40 -27 -54 -44 -20 -27 -24 -43 -23 -99 l1 -67 -47 -41 c-26 -23
-44 -45 -42 -50 10 -15 -34 -20 -76 -9 -47 13 -65 6 -25 -10 36 -13 76 -13
109 3 30 13 37 30 10 21 -14 -5 -15 -4 -4 4 8 6 20 8 27 5 15 -6 54 14 54 28
0 5 -11 2 -24 -6 -16 -11 -26 -13 -31 -5 -3 6 -3 10 2 9 19 -3 34 2 29 10 -7
11 22 36 31 27 3 -3 1 -6 -6 -6 -7 0 -9 -5 -6 -10 4 -6 10 -8 15 -5 4 3 11 -2
14 -11 4 -9 5 -17 4 -18 -32 -13 -77 -41 -69 -44 24 -8 9 -20 -33 -25 -24 -4
-61 -16 -82 -29 -37 -20 -38 -21 -21 -2 34 40 16 36 -35 -8 -62 -51 -108 -82
-114 -75 -3 3 21 33 52 68 32 36 20 26 -28 -23 -47 -48 -88 -93 -92 -100 -3
-7 -13 -24 -22 -38 -12 -19 -11 -18 6 3 28 35 127 88 112 60 -19 -35 -75 -74
-149 -103 -25 -10 -26 0 -5 52 9 23 145 177 163 186 3 1 15 10 25 18 18 14 17
14 -6 3 -13 -7 -46 -36 -73 -65 -27 -30 -52 -52 -57 -51 -4 1 -36 -34 -70 -78
-76 -99 -84 -107 -77 -77 3 12 1 20 -4 16 -5 -3 -9 -16 -9 -30 0 -14 -7 -36
-16 -49 -9 -13 -12 -30 -8 -36 4 -7 3 -9 -4 -6 -6 5 -8 0 -5 -13 6 -21 -11
-28 -23 -8 -5 7 -3 8 6 3 9 -5 10 -2 6 11 -3 11 -2 25 3 33 5 7 5 28 1 47 -6
24 -4 37 6 45 8 6 14 16 14 22 0 6 -7 2 -15 -9 -13 -17 -14 -17 -15 -1 0 9 -5
17 -11 17 -5 0 -7 -6 -3 -12 5 -10 4 -10 -7 0 -11 10 -17 8 -31 -10 l-17 -23
6 22 c3 13 9 23 14 23 5 0 9 7 9 15 0 8 4 15 10 15 5 0 7 -7 4 -15 -5 -11 -2
-13 10 -9 9 3 16 13 16 21 0 8 5 11 10 8 6 -4 9 -3 8 2 -1 4 6 23 15 40 14 27
15 32 2 27 -8 -3 -12 -11 -8 -17 3 -6 1 -7 -5 -3 -7 4 0 24 20 59 21 36 57 73
119 121 49 38 97 78 106 88 9 10 25 18 35 18 22 0 94 35 104 51 3 6 -4 4 -17
-4 -30 -19 -89 -15 -101 7 -5 9 -5 16 -1 17 4 0 -1 5 -12 10 l-20 9 20 -2 c11
-2 27 2 35 6 11 7 11 4 -2 -10 -12 -14 -14 -23 -7 -34 9 -13 10 -12 6 2 -3 9
1 22 9 29 8 6 12 14 9 17 -11 12 20 32 50 32 18 0 53 11 78 25 52 30 93 25 53
-6 -24 -19 -41 -59 -25 -59 5 0 9 4 9 9 0 5 15 20 33 32 32 23 32 23 13 1 -23
-26 -6 -30 17 -4 15 17 17 21 17 43 0 5 5 7 10 4 6 -3 11 -1 11 4 3 23 5 27
28 54 14 15 31 27 38 27 21 0 15 -17 -9 -24 -19 -5 -20 -8 -8 -15 9 -6 19 -6
26 0 6 5 23 10 38 11 14 1 26 6 26 11 0 5 -8 6 -18 3 -15 -5 -18 -1 -16 23 1
15 7 38 14 51 7 12 7 20 2 16 -16 -9 -41 4 -36 19 3 7 1 16 -5 20 -7 4 -11 -4
-11 -19 0 -13 6 -27 13 -29 7 -4 6 -6 -5 -6 -9 -1 -21 12 -29 32 -7 17 -15 36
-17 41 -3 5 0 6 6 3 5 -4 12 3 16 16 5 18 8 20 16 7 16 -24 11 3 -6 30 -12 21
-14 21 -9 4 3 -13 -1 -26 -12 -35 -15 -12 -16 -12 -11 2 8 20 -9 39 -27 32
-16 -6 -39 32 -30 50 4 6 -1 3 -10 -8 -13 -17 -17 -18 -25 -5 -11 17 -3 33 12
24 7 -4 8 -2 4 5 -6 9 -11 9 -22 0 -11 -9 -10 -18 11 -53 14 -24 22 -46 18
-49 -3 -4 -1 -7 6 -7 7 0 9 -4 6 -10 -3 -5 -1 -10 5 -10 6 0 8 -5 5 -10 -4 -6
-11 -8 -16 -5 -15 10 -10 -2 8 -16 14 -12 16 -12 8 0 -5 10 -4 12 3 7 9 -5 9
-13 1 -28 -9 -16 -8 -19 2 -13 9 6 11 2 7 -13 -4 -12 -2 -20 3 -16 5 3 9 0 9
-6 0 -6 6 -8 13 -5 6 4 4 0 -5 -8 -10 -8 -15 -17 -11 -21 4 -4 0 -4 -9 -1 -19
8 -31 32 -21 47 3 6 2 8 -4 5 -12 -8 -37 68 -28 86 4 6 1 5 -7 -3 -7 -8 -18
-16 -24 -17 -16 -3 -11 40 6 55 13 11 11 11 -7 2 -12 -5 -21 -16 -19 -23 1 -6
1 -9 -1 -4 -3 4 -8 5 -12 3 -4 -3 -7 5 -7 17 1 18 -6 23 -34 27 -23 3 -31 8
-22 13 6 5 12 5 12 1 0 -4 9 1 21 12 12 10 23 18 25 17 2 -2 4 0 5 5 1 15 32
41 42 35 6 -4 7 -1 2 6 -5 9 -14 6 -34 -12 -14 -13 -31 -22 -38 -20 -8 3 -2
13 15 28 15 14 21 25 14 25 -7 0 -15 -6 -18 -14 -3 -8 -12 -12 -20 -9 -8 3
-11 10 -8 15 4 6 -4 5 -16 -2 -19 -10 -26 -8 -47 12 -13 12 -28 22 -31 22 -4
-1 -6 2 -4 7 3 12 -1 11 -32 -4 -14 -8 -22 -18 -18 -23 4 -5 -5 2 -21 15 -25
23 -27 23 -24 5 1 -10 7 -25 11 -33 6 -9 5 -12 -1 -8 -6 4 -13 1 -16 -7 -4 -9
2 -13 17 -12 16 1 22 6 19 16 -4 13 -4 13 6 0 18 -25 13 -28 -31 -27 -24 2
-42 7 -41 12 1 6 -3 16 -9 23 -12 14 -32 16 -23 2 3 -5 1 -10 -4 -10 -6 0 -11
5 -11 10 0 6 -8 10 -17 11 -11 0 -13 3 -5 6 6 2 10 10 6 16 -3 7 1 4 9 -5 8
-10 17 -15 20 -11 4 3 2 12 -4 19 -18 22 7 25 34 4 36 -28 45 -25 13 5 l-27
25 26 10 c15 6 36 8 49 4 14 -3 32 3 49 16 23 18 27 19 27 5 0 -9 7 -23 15
-31 13 -13 17 -13 40 2 13 9 22 20 19 25 -3 5 10 18 28 29 38 23 30 27 -11 5
-16 -8 -31 -22 -35 -31 -5 -12 -9 -14 -20 -5 -7 6 -16 8 -19 4 -4 -3 -7 -2 -7
4 0 13 28 25 40 18 5 -3 14 4 20 15 12 22 1 27 -19 8 -10 -11 -11 -10 -6 4 6
15 2 17 -29 13 -19 -3 -38 -1 -41 4 -9 16 15 24 31 10 12 -10 17 -8 28 7 8 10
12 23 9 28 -4 5 -1 6 5 2 5 -3 12 0 15 6 3 9 10 7 23 -6 19 -19 19 -20 0 -5
-18 13 -19 12 -13 -3 5 -14 1 -18 -15 -18 -18 0 -18 -13 0 -16 4 0 14 -4 23
-8 18 -8 102 27 91 39 -4 4 2 5 14 1 12 -4 29 -3 39 0 17 7 17 8 -1 21 -25 18
-42 17 -18 -2 18 -14 18 -15 -6 -7 -18 7 -29 4 -45 -10 -29 -28 -55 -41 -55
-28 0 5 4 10 9 10 5 0 25 16 45 36 29 29 38 33 55 25 25 -14 41 -14 41 -1 0 6
-6 10 -14 8 -8 -2 -15 2 -15 7 0 6 22 9 52 8 48 -1 49 0 17 8 -19 4 -41 6 -48
4 -7 -3 -10 -1 -7 4 3 5 1 12 -5 16 -5 3 -10 2 -10 -4 0 -6 -7 -7 -17 -4 -12
5 -14 3 -8 -8 4 -8 5 -11 0 -7 -4 4 -22 -7 -39 -25 -32 -33 -48 -39 -63 -23
-4 5 -3 7 2 3 6 -3 17 -1 25 4 23 14 -25 52 -49 39 -13 -6 -18 -5 -18 4 0 15
44 13 60 -3 6 -6 16 -11 21 -11 6 1 0 10 -13 20 l-23 20 24 0 c13 0 30 -6 37
-12 10 -11 15 -10 25 5 17 22 84 24 92 2 4 -8 16 -15 28 -14 20 0 20 1 2 8
-37 14 9 21 122 18 91 -3 125 -9 227 -41 115 -37 174 -61 185 -76 3 -3 27 -21
53 -39 26 -18 66 -55 87 -83 l40 -50 0 -104 c0 -68 -4 -103 -10 -99 -6 4 -5
-4 1 -19 9 -20 9 -31 1 -48 l-12 -23 6 24 c5 17 3 21 -6 16 -8 -5 -11 -4 -6 3
11 18 -12 62 -29 56 -19 -8 -15 -40 4 -36 7 1 10 -2 6 -8 -3 -6 -11 -7 -17 -4
-7 5 -9 -2 -6 -20 4 -17 2 -24 -4 -18 -5 5 -10 18 -11 29 0 12 -6 19 -12 16
-7 -2 -17 3 -24 11 -7 8 -19 12 -27 9 -10 -3 1 -18 35 -49 44 -40 50 -50 61
-109 11 -60 11 -68 -6 -86 -28 -31 -54 -43 -109 -50 l-50 -6 63 -2 c35 0 73 4
85 10 21 10 21 10 3 -6 -19 -15 -19 -15 7 -13 17 2 26 7 23 15 -3 7 -1 15 5
19 6 3 14 16 19 28 7 16 9 17 9 4 1 -9 -4 -20 -9 -23 -6 -4 -8 -11 -4 -16 3
-6 12 -3 21 8 18 23 6 -3 -19 -39 -11 -16 -27 -28 -36 -28 -9 0 -28 -10 -42
-21 -16 -13 -19 -19 -8 -15 11 3 23 -3 31 -15 12 -17 16 -17 26 -5 14 16 -2
32 -21 20 -6 -4 -8 -3 -5 3 4 6 21 16 37 22 18 6 28 6 25 1 -4 -6 -14 -10 -23
-10 -15 -1 -15 -2 1 -14 14 -11 15 -15 5 -19 -8 -3 -5 -6 6 -6 11 -1 28 6 38
16 10 9 18 12 18 7 0 -12 -20 -42 -20 -30 0 5 -7 3 -15 -4 -8 -6 -18 -10 -22
-7 -4 2 -16 2 -25 -2 -15 -5 -16 -9 -5 -31 8 -14 12 -31 9 -38 -2 -6 2 -12 9
-12 7 0 10 2 7 5 -3 3 17 28 44 56 41 41 48 52 38 64 -7 9 12 3 43 -12 l56
-28 0 -70 c1 -80 -24 -290 -42 -350 -6 -22 -19 -47 -29 -55 -10 -8 -29 -37
-43 -64 -17 -31 -20 -45 -11 -37 9 8 16 21 17 30 0 9 3 11 5 4 3 -6 -4 -30
-16 -53 -11 -22 -18 -45 -15 -49 6 -11 -21 -34 -45 -38 -11 -1 -22 3 -26 10
-4 6 -4 9 1 5 10 -10 47 10 40 22 -3 5 -1 11 5 15 6 4 8 11 4 16 -9 14 -34 -9
-28 -26 6 -14 -12 -15 -33 -2 -7 5 -16 -1 -23 -13 -6 -11 -7 -20 -3 -19 19 3
33 -2 33 -12 0 -5 -5 -7 -12 -3 -7 4 -8 3 -4 -4 4 -6 14 -9 24 -6 15 5 15 4
-1 -9 -10 -8 -18 -18 -18 -21 2 -18 0 -24 -12 -29 -8 -3 -14 1 -14 9 0 7 4 11
9 8 4 -3 8 0 8 5 0 6 -6 11 -12 11 -9 0 -8 4 2 10 12 8 10 9 -7 7 -12 -2 -26
-7 -30 -12 -5 -4 -3 -5 4 -1 18 10 25 -10 8 -24 -8 -7 -15 -9 -15 -4 0 11 -20
-18 -20 -29 0 -5 7 -1 16 8 9 9 19 13 22 10 4 -3 0 -10 -8 -15 -10 -6 63 -10
198 -10 l212 0 0 443 0 442 -21 -32 c-53 -83 -187 -66 -229 30 -28 65 -43 245
-38 446 5 155 8 182 27 219 42 83 130 106 209 55 22 -15 43 -36 45 -47 2 -12
5 34 6 102 l1 122 -875 0 -875 0 0 -215z m380 91 c0 -3 -4 -8 -10 -11 -5 -3
-10 -1 -10 4 0 6 5 11 10 11 6 0 10 -2 10 -4z m-40 -27 c-11 -8 -7 -9 15 -5
21 4 25 3 15 -3 -8 -5 -18 -8 -22 -8 -4 1 -14 -7 -22 -18 -8 -11 -18 -16 -23
-12 -4 5 0 13 10 18 25 14 11 32 -15 18 -15 -8 -23 -8 -32 1 -8 8 -7 10 7 5 9
-4 17 -3 17 3 0 6 9 9 20 7 11 -2 22 1 26 6 3 6 9 8 12 4 4 -3 0 -11 -8 -16z
m119 -1 c-10 -19 -34 -24 -44 -9 -3 5 0 13 6 17 8 4 9 3 5 -4 -4 -7 -1 -12 9
-12 10 0 15 6 12 13 -3 8 1 14 8 14 10 0 11 -5 4 -19z m-200 -22 c8 -10 9 -16
1 -21 -6 -4 -9 -1 -8 7 2 7 -3 12 -10 10 -8 -1 -11 2 -7 8 8 13 10 13 24 -4z
m103 -43 c-12 -20 -39 -26 -39 -8 0 7 6 11 14 8 7 -3 13 0 13 6 0 6 5 11 10
11 7 0 8 -6 2 -17z m-161 -10 c12 -16 12 -17 -2 -6 -9 7 -20 9 -24 5 -5 -4 -5
-1 -1 6 9 16 11 15 27 -5z m103 -15 c-3 -4 -11 -5 -20 -1 -11 4 -12 8 -3 20
10 11 14 11 20 1 4 -6 6 -15 3 -20z m-164 -2 c0 -2 -8 -10 -17 -17 -16 -13
-17 -12 -4 4 13 16 21 21 21 13z m83 -16 c-6 -21 -25 -28 -20 -7 2 10 16 26
24 27 0 0 -1 -9 -4 -20z m181 5 c-4 -8 -11 -15 -16 -15 -6 0 -5 6 2 15 7 8 14
15 16 15 2 0 1 -7 -2 -15z m46 1 c-7 -7 -13 -7 -20 0 -6 6 -3 10 10 10 13 0
16 -4 10 -10z m-300 -9 c0 -2 -13 -16 -29 -31 -24 -23 -29 -25 -27 -10 2 11 8
19 14 19 6 0 17 6 24 13 12 12 18 15 18 9z m230 -22 c0 -2 -6 -7 -12 -11 -7
-4 -10 -4 -6 1 4 4 0 14 -10 22 -15 13 -15 13 6 3 12 -6 22 -13 22 -15z m-106
0 c-4 -8 -8 -15 -10 -15 -2 0 -4 7 -4 15 0 8 4 15 10 15 5 0 7 -7 4 -15z m60
7 c3 -5 -1 -9 -9 -9 -8 0 -12 4 -9 9 3 4 7 8 9 8 2 0 6 -4 9 -8z m-89 -32 c-3
-5 -10 -10 -16 -10 -5 0 -9 5 -9 10 0 6 7 10 16 10 8 0 12 -4 9 -10z m-40 -10
c-3 -5 0 -10 7 -10 7 0 2 -8 -12 -17 -13 -9 -36 -30 -51 -47 -16 -17 -29 -25
-29 -18 0 8 -5 10 -12 6 -7 -4 0 7 16 24 16 17 32 30 35 28 3 -3 15 2 26 10
10 8 15 14 11 14 -4 0 -4 5 -1 10 3 6 8 10 11 10 3 0 2 -4 -1 -10z m-115 -43
l-34 -32 30 36 c16 20 31 34 33 32 3 -2 -10 -18 -29 -36z m-26 24 c3 -4 -7
-19 -22 -32 l-27 -24 23 26 c12 14 19 29 15 32 -3 4 -4 7 0 7 3 0 8 -4 11 -9z
m136 -60 c-6 -12 -15 -19 -20 -16 -5 3 -2 14 7 25 21 24 28 19 13 -9z m217 -4
c0 -8 -6 -14 -14 -14 -9 0 -10 4 -2 14 6 7 12 13 14 13 1 0 2 -6 2 -13z m100
-11 c0 -8 -6 -12 -14 -9 -7 3 -10 9 -7 14 8 14 21 11 21 -5z m-423 -5 c3 -4
-4 -17 -16 -27 -13 -12 -18 -13 -12 -4 5 8 9 18 10 23 3 15 4 17 8 17 3 0 7
-4 10 -9z m1033 -37 c-4 -4 -13 -1 -22 6 -8 7 -15 8 -15 2 0 -14 25 -33 33
-25 4 3 7 4 7 1 0 -3 -7 -11 -16 -18 -12 -11 -15 -11 -12 1 2 8 -4 13 -14 13
-17 -2 -15 18 5 44 8 11 13 10 26 -2 8 -9 12 -19 8 -22z m-837 21 c0 -7 -30
-13 -34 -7 -3 4 4 9 15 9 10 1 19 0 19 -2z m172 -20 c-4 -21 -7 -23 -19 -13
-13 10 -13 14 3 25 23 17 22 17 16 -12z m-87 4 c19 -9 18 -9 -2 -5 -13 2 -26
0 -29 -5 -7 -12 -24 -11 -24 2 0 5 5 7 10 4 6 -3 10 -1 10 4 0 13 8 13 35 0z
m175 7 c0 -2 -6 -9 -13 -15 -10 -8 -14 -7 -14 4 0 8 6 15 14 15 7 0 13 -2 13
-4z m-446 -14 c3 -5 -1 -9 -9 -9 -8 0 -12 4 -9 9 3 4 7 8 9 8 2 0 6 -4 9 -8z
m66 -22 c-8 -5 -17 -6 -20 -3 -3 3 1 8 8 10 6 3 9 10 6 16 -4 7 -1 7 7 -1 12
-11 12 -14 -1 -22z m117 14 c-8 -8 -48 -13 -43 -6 2 4 14 8 26 9 12 1 20 0 17
-3z m103 -14 c0 -5 -7 -7 -15 -4 -8 4 -15 8 -15 10 0 2 7 4 15 4 8 0 15 -4 15
-10z m-335 -23 c6 -5 4 -7 -5 -4 -8 2 -21 -3 -28 -12 -10 -13 -10 -11 -1 12 7
15 15 24 18 20 3 -4 11 -12 16 -16z m311 10 c2 -2 -9 -4 -26 -5 -16 0 -32 3
-34 7 -5 7 52 6 60 -2z m-250 -12 c-1 -8 -6 -18 -11 -22 -4 -4 -5 -2 -1 5 4 6
2 12 -4 12 -6 0 -8 5 -5 10 9 15 24 12 21 -5z m164 9 c0 -8 -19 -13 -24 -6 -3
5 1 9 9 9 8 0 15 -2 15 -3z m410 -20 c23 -3 24 -5 11 -13 -15 -10 -40 12 -41
34 0 6 5 3 10 -5 5 -8 14 -16 20 -16z m400 16 c0 -5 -5 -10 -11 -10 -5 0 -8
-4 -5 -8 3 -5 -1 -9 -9 -9 -10 0 -11 5 -4 19 10 19 29 25 29 8z m-926 -9 c-9
-9 -34 -9 -34 -1 0 5 9 8 20 7 10 -1 17 -3 14 -6z m66 1 c0 -5 -7 -17 -15 -28
-14 -18 -14 -17 -4 9 12 27 19 34 19 19z m260 -7 c47 -24 107 -114 113 -168 4
-34 2 -44 -8 -41 -7 3 -15 -2 -18 -10 -4 -9 -14 -16 -22 -16 -9 0 -14 -3 -12
-7 6 -9 -38 -14 -128 -15 -46 0 -74 6 -117 27 -32 15 -59 30 -59 34 -8 40 -2
62 32 113 22 32 49 63 61 69 58 31 116 36 158 14z m690 5 c-20 -13 -33 -13
-25 0 3 6 14 10 23 10 15 0 15 -2 2 -10z m-875 -12 c-21 -13 -45 -19 -45 -12
0 6 41 23 55 23 6 0 1 -5 -10 -11z m698 -28 c-10 -11 -19 -20 -21 -20 -1 0 2
9 8 20 6 11 15 20 20 20 6 0 2 -9 -7 -20z m-892 -7 c-15 -28 -40 -59 -41 -50
0 8 41 67 47 67 2 0 -1 -8 -6 -17z m-58 -10 c-5 -12 -3 -14 7 -8 9 5 11 4 6
-4 -4 -6 -12 -9 -17 -6 -5 4 -9 1 -9 -4 0 -6 -4 -11 -9 -11 -6 0 -9 9 -8 19 0
11 4 18 8 15 4 -2 10 0 14 6 10 16 15 12 8 -7z m81 -5 c-2 -13 -5 -33 -8 -46
-3 -15 0 -25 9 -29 8 -3 15 -10 15 -16 0 -5 -8 -3 -18 6 -14 13 -21 14 -30 5
-9 -9 -12 -9 -12 0 0 7 4 12 8 12 5 0 9 6 10 13 2 32 17 77 26 77 2 0 2 -10 0
-22z m98 15 c-6 -2 -9 -10 -6 -15 4 -7 2 -8 -5 -4 -13 9 -5 26 12 25 9 0 8 -2
-1 -6z m32 -8 c-4 -8 -11 -15 -16 -15 -6 0 -5 6 2 15 7 8 14 15 16 15 2 0 1
-7 -2 -15z m363 -32 c0 -9 -4 -10 -14 -2 -7 6 -13 12 -13 14 0 1 6 2 13 2 8 0
14 -6 14 -14z m-377 3 c0 -3 -4 -8 -10 -11 -5 -3 -10 -1 -10 4 0 6 5 11 10 11
6 0 10 -2 10 -4z m-184 -29 c12 -12 -26 -14 -42 -2 -16 11 -15 12 10 10 15 -2
30 -5 32 -8z m665 -10 c-10 -9 -11 -8 -5 6 3 10 9 15 12 12 3 -3 0 -11 -7 -18z
m204 4 c3 -5 2 -12 -3 -15 -5 -3 -9 1 -9 9 0 17 3 19 12 6z m-204 -44 c-10 -9
-11 -8 -5 6 3 10 9 15 12 12 3 -3 0 -11 -7 -18z m309 2 c0 -5 -4 -9 -10 -9 -5
0 -10 7 -10 16 0 8 5 12 10 9 6 -3 10 -10 10 -16z m-960 -4 c0 -2 -6 -8 -13
-14 -10 -8 -14 -7 -14 2 0 8 6 14 14 14 7 0 13 -1 13 -2z m567 -27 c-3 -7 -5
-2 -5 12 0 14 2 19 5 13 2 -7 2 -19 0 -25z m-527 8 c0 -2 -7 -7 -16 -10 -8 -3
-12 -2 -9 4 6 10 25 14 25 6z m589 -9 c-2 -1 -13 -9 -24 -17 -19 -14 -19 -14
-6 3 7 9 18 17 24 17 6 0 8 -1 6 -3z m321 -7 c0 -5 -7 -7 -15 -4 -8 4 -15 8
-15 10 0 2 7 4 15 4 8 0 15 -4 15 -10z m407 -12 c2 -17 0 -19 -7 -8 -5 8 -6
18 -4 22 8 12 10 10 11 -14z m20 -10 c-3 -8 -6 -5 -6 6 -1 11 2 17 5 13 3 -3
4 -12 1 -19z m-512 -5 c-5 -15 -4 -16 6 -5 19 18 27 15 25 -12 -1 -22 -2 -22
-23 -8 -24 15 -28 24 -16 35 11 12 15 7 8 -10z m-835 -7 c0 -2 -8 -10 -17 -17
-16 -13 -17 -12 -4 4 13 16 21 21 21 13z m128 -5 c-4 -12 3 -14 25 -5 32 12
26 -1 -10 -19 -19 -9 -31 -13 -28 -7 4 6 1 17 -5 25 -10 12 -9 15 4 15 9 0 15
-4 14 -9z m416 -13 c-3 -4 -11 -5 -19 -1 -21 7 -19 12 4 10 11 0 18 -5 15 -9z
m-524 -2 c0 -3 -4 -8 -10 -11 -5 -3 -10 -1 -10 4 0 6 5 11 10 11 6 0 10 -2 10
-4z m-87 -21 c-3 -9 -8 -14 -10 -11 -3 3 -2 9 2 15 9 16 15 13 8 -4z m242 0
c-16 -8 -23 -14 -15 -15 9 0 25 7 36 15 12 8 24 12 26 9 3 -2 16 -7 28 -9 32
-6 40 -18 10 -14 -14 2 -34 -2 -46 -8 -11 -7 -32 -10 -45 -7 -21 4 -22 3 -4
-5 22 -11 6 -15 -20 -5 -13 5 -14 8 -3 15 10 7 10 9 -2 9 -9 1 -5 6 10 15 14
8 32 14 40 14 8 0 2 -7 -15 -14z m235 10 c0 -2 -10 -10 -22 -16 -21 -11 -22
-11 -9 4 13 16 31 23 31 12z m-380 -21 c0 -8 -5 -12 -10 -9 -6 4 -8 11 -5 16
9 14 15 11 15 -7z m1328 -15 c-3 -8 -7 -3 -11 10 -4 17 -3 21 5 13 5 -5 8 -16
6 -23z m-1285 -6 c3 -5 -6 -9 -20 -10 -19 -1 -22 1 -12 8 17 11 26 11 32 2z
m165 -34 c-43 -21 -78 -42 -78 -44 0 -3 18 4 40 15 38 20 60 20 60 0 0 -15
-133 -120 -143 -113 -6 3 5 19 24 36 l34 29 -37 -26 c-36 -26 -52 -24 -26 2 7
7 8 12 3 12 -4 0 0 10 11 23 l19 22 -22 -19 c-13 -10 -20 -23 -16 -29 4 -6 1
-7 -7 -2 -9 5 -11 4 -6 -3 5 -8 2 -10 -8 -6 -18 7 -22 25 -5 22 6 -2 14 3 17
11 3 10 0 12 -12 8 -8 -3 -15 -2 -13 2 1 5 -1 9 -5 10 -5 1 -9 -2 -9 -6 -2
-11 -59 -76 -81 -91 -15 -11 -17 -11 -12 3 3 8 12 15 20 15 8 0 14 7 14 15 0
8 6 15 13 16 9 0 9 2 -1 6 -6 2 -10 9 -6 14 3 5 0 9 -6 9 -6 0 -8 5 -4 11 4 8
9 7 15 -2 4 -7 10 -11 14 -8 8 9 -21 60 -30 51 -5 -4 -5 -1 -1 6 4 7 11 10 16
7 4 -3 11 1 14 7 3 7 2 0 -1 -17 l-6 -30 24 25 c13 14 21 21 17 16 -13 -17 -9
-28 8 -22 8 3 12 2 9 -4 -6 -10 29 -32 39 -23 3 3 0 13 -7 21 -6 9 -7 13 -1 9
6 -3 33 8 61 26 37 24 63 33 99 34 l49 2 -77 -40z m-233 16 c-11 -8 -28 -22
-38 -32 -17 -17 -18 -17 -11 0 3 10 18 24 33 32 33 18 42 18 16 0z m968 -9 c4
-10 1 -13 -8 -9 -8 3 -12 9 -9 14 7 12 11 11 17 -5z m-1046 -36 c-1 -12 -5
-16 -10 -11 -5 5 -6 14 -3 20 11 16 15 13 13 -9z m73 -5 c0 -2 -6 -8 -13 -14
-10 -8 -14 -7 -14 2 0 8 6 14 14 14 7 0 13 -1 13 -2z m267 -48 c-3 -8 -38 -41
-79 -74 -82 -66 -122 -91 -68 -43 28 25 30 28 8 15 -16 -10 -43 -38 -62 -64
-19 -25 -45 -55 -58 -66 -23 -19 -23 -19 1 8 14 15 21 27 17 27 -4 0 0 7 8 16
9 8 16 21 16 29 0 19 203 185 214 175 5 -5 6 -15 3 -23z m1085 -29 c-7 -7 -12
-8 -12 -2 0 14 12 26 19 19 2 -3 -1 -11 -7 -17z m-1271 -4 c2 2 12 -6 22 -19
12 -17 14 -26 5 -31 -6 -4 -8 -3 -4 4 3 6 2 13 -3 16 -9 6 -23 -17 -30 -51 -1
-5 -7 -1 -14 7 -13 17 -61 25 -52 9 4 -5 1 -9 -4 -9 -6 0 -11 5 -11 11 0 5 -6
7 -12 3 -8 -4 -10 -3 -5 2 5 5 12 9 15 9 4 0 18 8 32 18 13 9 21 17 16 17 -5
0 -3 7 4 15 9 11 16 12 25 5 6 -5 14 -8 16 -6z m1248 -61 c-8 -9 -16 -10 -22
-4 -13 13 0 31 19 24 11 -4 12 -8 3 -20z m-1403 -32 c0 -9 5 -15 12 -13 8 1
11 -2 7 -8 -4 -6 -12 -6 -24 2 -20 12 -24 35 -6 35 7 0 12 -7 11 -16z m124 4
c0 -2 -6 -5 -13 -8 -8 -3 -14 1 -14 8 0 7 6 11 14 8 7 -3 13 -6 13 -8z m585 3
c5 4 5 2 1 -5 -3 -6 -2 -14 4 -18 5 -3 10 -2 10 3 0 15 29 22 36 9 4 -7 3 -9
-1 -4 -5 4 -16 0 -26 -9 -11 -10 -19 -12 -24 -4 -3 5 -11 7 -17 4 -6 -4 -8 -2
-4 4 3 6 2 13 -3 16 -5 4 -12 2 -15 -3 -7 -10 39 -62 48 -54 3 4 6 -4 6 -17 0
-23 0 -23 -20 -5 -23 21 -45 10 -30 -15 8 -12 10 -12 10 -1 0 11 3 11 15 1 8
-7 15 -17 15 -22 0 -7 -5 -6 -13 1 -8 6 -16 9 -19 6 -3 -3 -11 2 -19 11 -12
14 -10 19 10 35 13 11 19 19 14 19 -5 0 -14 -5 -20 -11 -20 -20 -36 1 -17 22
13 15 14 19 3 19 -10 1 -8 5 5 15 13 10 23 11 31 5 7 -5 16 -6 20 -2z m-642
-75 c-12 -18 -18 -21 -30 -12 -7 7 -11 14 -8 18 3 3 9 0 13 -6 5 -9 12 -6 20
8 12 19 11 20 -10 14 -16 -4 -19 -4 -9 3 8 6 11 17 7 28 -4 13 0 12 13 -5 17
-23 18 -27 4 -48z m684 27 c1 -11 -2 -22 -8 -25 -7 -5 -7 18 0 43 3 8 7 -1 8
-18z m87 -8 c2 -4 -5 -9 -17 -9 -17 -2 -19 0 -7 7 18 12 18 12 24 2z m-199
-12 c3 -5 -1 -21 -10 -34 -9 -14 -15 -29 -12 -33 3 -4 -16 -9 -41 -10 l-45 -2
37 37 c20 21 34 40 32 43 -3 3 4 5 14 6 11 1 22 -2 25 -7z m-100 -55 c-27 -25
-55 -45 -63 -45 -7 0 -11 -4 -8 -8 2 -4 -4 -8 -14 -8 -18 0 -18 2 4 31 25 32
91 75 116 74 8 0 -7 -20 -35 -44z m225 15 c6 -11 8 -20 6 -20 -3 0 -10 9 -16
20 -6 11 -8 20 -6 20 3 0 10 -9 16 -20z m-720 -4 c0 -2 -8 -10 -17 -17 -16
-13 -17 -12 -4 4 13 16 21 21 21 13z m400 -46 c-21 -29 -58 -60 -72 -60 -12 0
32 69 51 80 33 20 43 11 21 -20z m-370 16 c0 -2 -8 -10 -17 -17 -16 -13 -17
-12 -4 4 13 16 21 21 21 13z m-62 -20 c-7 -8 -15 -12 -17 -11 -5 6 10 25 20
25 5 0 4 -6 -3 -14z m533 -4 c-7 -2 -18 1 -23 6 -8 8 -4 9 13 5 13 -4 18 -8
10 -11z m515 -3 c4 -7 1 -10 -7 -7 -8 3 -22 -7 -31 -21 -10 -14 -18 -20 -18
-12 0 16 28 51 41 51 4 0 11 -5 15 -11z m-372 -9 c-3 -2 11 -14 31 -26 24 -14
32 -23 22 -27 -8 -3 -20 -1 -28 4 -8 5 -31 9 -51 9 -33 0 -38 3 -38 24 0 22 4
24 34 23 19 -1 32 -4 30 -7z m-624 -14 c0 -8 -6 -16 -13 -19 -8 -3 -14 1 -14
9 0 7 4 11 9 8 4 -3 8 0 8 5 0 6 2 11 5 11 3 0 5 -6 5 -14z m550 -6 c0 -15 -7
-20 -27 -20 -16 0 -46 -2 -68 -5 -22 -3 -33 -2 -25 1 8 4 22 12 30 19 15 13
42 22 73 24 11 1 17 -6 17 -19z m300 -10 c0 -17 -5 -19 -30 -15 -16 3 -30 2
-30 -2 0 -5 -21 -9 -48 -10 l-47 -2 47 15 c26 8 50 19 53 24 3 6 17 10 31 10
17 0 24 -5 24 -20z m-222 -31 c-7 -4 -4 -9 8 -12 10 -2 -7 -5 -38 -6 -33 0
-58 3 -58 9 0 6 -17 9 -37 9 -27 -1 -31 -3 -14 -6 17 -3 20 -7 12 -13 -7 -4
30 -7 82 -6 52 0 93 -2 90 -6 -2 -5 -26 -8 -54 -8 -27 0 -49 -4 -49 -10 0 -5
-5 -10 -11 -10 -5 0 -7 6 -3 13 5 8 4 9 -4 2 -13 -12 -102 -7 -102 6 0 4 7 6
16 2 12 -4 15 -2 12 8 -3 8 -10 15 -16 15 -25 3 -26 6 -7 14 24 10 190 9 173
-1z m-213 -9 c3 -6 -1 -7 -9 -4 -18 7 -21 14 -7 14 6 0 13 -4 16 -10z m332 -6
c-3 -3 -12 -4 -19 -1 -8 3 -5 6 6 6 11 1 17 -2 13 -5z m158 -15 c13 -5 0 -8
-40 -8 -33 1 -54 3 -46 6 11 5 11 7 0 15 -16 10 54 0 86 -13z m-117 0 c-26
-15 -22 -28 8 -23 16 3 23 1 19 -6 -8 -12 -54 -5 -69 11 -8 9 -8 10 0 6 7 -4
17 0 24 8 7 8 18 15 24 15 6 0 3 -5 -6 -11z m-351 -5 c-3 -3 -12 -4 -19 -1 -8
3 -5 6 6 6 11 1 17 -2 13 -5z m523 1 c0 -2 -10 -9 -22 -15 -22 -11 -22 -10 -4
4 21 17 26 19 26 11z m-977 -22 c-22 -4 -27 -13 -24 -43 2 -13 0 -13 -8 -1
-14 21 5 51 32 50 l22 -2 -22 -4z m344 1 c-3 -3 -12 -4 -19 -1 -8 3 -5 6 6 6
11 1 17 -2 13 -5z m401 -19 c-3 -3 -9 2 -12 12 -6 14 -5 15 5 6 7 -7 10 -15 7
-18z m139 19 c-3 -3 -12 -4 -19 -1 -8 3 -5 6 6 6 11 1 17 -2 13 -5z m139 -12
c-2 -8 -11 -18 -22 -23 -17 -8 -17 -8 -2 3 14 10 15 13 2 23 -13 9 -12 11 4
11 11 0 19 -6 18 -14z m-36 -9 c0 -3 -7 -3 -15 0 -8 4 -17 2 -20 -3 -3 -5 3
-10 12 -13 10 -2 3 -4 -14 -4 -18 0 -33 4 -33 9 0 11 -37 10 -45 -1 -3 -5 5
-12 17 -14 20 -4 19 -4 -4 -6 -16 0 -28 4 -28 10 0 5 -4 8 -8 5 -4 -2 -14 -1
-22 4 -21 13 0 19 75 22 60 3 85 0 85 -9z m57 -5 c-3 -8 -6 -5 -6 6 -1 11 2
17 5 13 3 -3 4 -12 1 -19z m-629 -18 c-14 -19 -28 -28 -37 -25 -9 3 -12 3 -8
-1 4 -4 -1 -13 -11 -20 -20 -15 -56 -19 -47 -4 3 5 12 7 19 4 8 -3 17 -1 21 5
3 6 0 11 -7 11 -7 0 -2 10 12 21 18 14 19 18 5 11 -11 -6 -29 -20 -40 -32 -11
-12 -29 -27 -40 -32 -19 -11 -19 -11 -1 18 l19 29 -27 -24 c-33 -31 -33 -16
-1 24 21 26 34 31 87 36 35 3 67 7 71 7 4 1 -2 -12 -15 -28z m54 -12 c-31 -32
-50 -43 -74 -44 -18 -1 -26 0 -18 3 8 2 27 22 42 44 23 32 34 39 60 39 l32 0
-42 -42z m106 35 c-10 -2 -28 -2 -40 0 -13 2 -5 4 17 4 22 1 32 -1 23 -4z
m-394 -12 c3 -5 -1 -11 -9 -14 -9 -4 -12 -1 -8 9 6 16 10 17 17 5z m84 -23
c-14 -18 -42 -58 -63 -88 -52 -75 -53 -75 -48 -43 2 16 -4 6 -15 -23 -21 -54
-52 -107 -59 -100 -11 10 30 112 64 159 68 95 97 125 122 126 l23 1 -24 -32z
m455 25 c-7 -2 -19 -2 -25 0 -7 3 -2 5 12 5 14 0 19 -2 13 -5z m-598 -17 c28
-19 26 -19 70 -1 l39 17 -34 -39 c-19 -21 -43 -49 -53 -63 -10 -14 -16 -18
-14 -10 15 55 17 65 8 45 -36 -75 -54 -124 -56 -146 -2 -15 -8 -35 -14 -45
-11 -17 -11 -17 -6 3 3 13 2 30 -3 39 -8 14 -10 14 -26 -1 -9 -10 -14 -20 -11
-23 3 -4 10 0 15 8 8 13 10 12 10 -2 0 -10 -7 -18 -16 -18 -13 0 -14 -3 -4
-15 10 -12 9 -16 -4 -21 -9 -3 -13 -11 -9 -17 3 -6 1 -7 -5 -3 -6 4 -9 12 -7
19 2 7 7 25 9 42 3 16 12 35 21 41 8 6 15 17 15 25 0 8 5 21 11 29 8 11 9 7 5
-17 -9 -52 0 -39 24 37 12 38 29 75 36 81 8 6 11 15 8 21 -3 5 -23 -19 -43
-54 -21 -34 -43 -64 -49 -66 -12 -4 23 115 40 135 13 16 19 16 43 -1z m918 -3
c-7 -2 -19 -2 -25 0 -7 3 -2 5 12 5 14 0 19 -2 13 -5z m-532 -38 c8 0 14 -7
14 -15 0 -11 -9 -14 -30 -12 -56 5 -60 10 -34 38 21 23 24 23 30 7 3 -10 12
-18 20 -18z m-544 14 c-9 -6 -15 -14 -12 -18 2 -5 -2 -14 -10 -21 -10 -9 -15
-9 -15 -1 0 6 5 11 10 11 6 0 9 3 9 8 -4 21 3 32 19 32 16 -1 16 -1 -1 -11z
m50 -7 c-10 -10 -15 -21 -12 -24 3 -3 -3 -13 -14 -22 -14 -13 -21 -14 -27 -5
-4 7 -3 10 3 6 6 -4 16 0 23 8 7 8 9 15 6 15 -4 0 -2 9 4 20 6 11 16 20 22 20
6 0 4 -8 -5 -18z m227 -73 c-32 -34 -30 -33 -37 -15 -8 19 29 57 49 49 13 -5
10 -11 -12 -34z m133 35 c-3 -3 -12 -4 -19 -1 -8 3 -5 6 6 6 11 1 17 -2 13 -5z
m186 -8 c-4 -5 1 -7 11 -3 11 5 15 3 10 -5 -5 -7 0 -9 14 -6 12 4 20 2 16 -3
-7 -12 20 -11 32 1 7 7 18 7 35 0 24 -10 24 -10 -4 -7 -15 3 -30 0 -33 -4 -3
-5 6 -9 20 -9 14 0 27 -4 30 -9 3 -5 -12 -8 -33 -7 -21 0 -37 4 -35 8 5 8 -86
39 -97 32 -5 -3 -6 2 -3 10 3 8 14 14 24 13 10 -1 16 -5 13 -11z m-199 -4 l38
-7 -73 -70 c-99 -94 -174 -153 -159 -126 6 12 20 27 31 34 11 6 48 47 81 91
33 43 56 76 50 72 -6 -4 -34 -37 -61 -74 -40 -53 -91 -104 -91 -90 0 21 54
126 76 149 29 30 42 33 108 21z m1096 -32 c-7 -16 -16 -27 -21 -24 -5 3 -2 19
7 35 20 39 31 30 14 -11z m-1513 15 c0 -8 -4 -12 -9 -9 -5 3 -6 10 -3 15 9 13
12 11 12 -6z m471 -22 c-20 -21 -47 -54 -60 -73 -24 -34 -36 -42 -70 -44 -9 0
-15 -3 -13 -6 2 -4 -2 -7 -10 -7 -15 0 -15 1 24 47 2 3 1 -4 -3 -15 -4 -11 -5
-17 -3 -15 2 3 32 38 66 78 41 48 69 72 83 72 20 0 19 -4 -14 -37z m65 31 c7
-7 -141 -184 -154 -184 -6 0 -8 -4 -5 -9 3 -5 -6 -16 -20 -26 -18 -12 -23 -20
-16 -27 8 -8 18 -6 36 6 31 20 32 20 40 -1 4 -10 4 -14 0 -10 -4 4 -15 0 -24
-8 -13 -12 -20 -12 -42 -1 -20 10 -29 11 -38 2 -10 -8 -11 -7 -8 4 3 8 19 25
38 38 18 12 29 22 24 22 -4 0 -3 5 4 12 7 7 12 17 12 22 0 6 -7 0 -16 -13 -13
-18 -90 -61 -110 -61 -7 0 2 39 11 47 4 5 5 2 0 -6 -9 -16 -8 -15 62 22 29 15
55 27 59 27 3 -1 17 16 31 37 27 41 93 113 103 113 4 0 9 -3 13 -6z m-463 -39
c0 -8 -4 -15 -10 -15 -5 0 -7 7 -4 15 4 8 8 15 10 15 2 0 4 -7 4 -15z m-49
-10 c8 6 8 2 0 -14 -7 -11 -17 -21 -24 -21 -7 0 -6 4 3 10 13 9 7 14 -12 11
-5 0 -8 6 -8 15 0 13 3 14 15 4 8 -6 19 -9 26 -5z m235 -10 c1 -9 -2 -12 -9
-8 -6 4 -8 0 -4 -10 3 -9 -6 -42 -20 -74 -15 -32 -26 -61 -25 -66 1 -4 -4 -6
-10 -5 -7 2 -12 -2 -11 -8 1 -6 -4 -11 -12 -11 -16 0 -9 24 11 31 8 3 14 11
14 18 0 9 -3 9 -10 -2 -17 -26 -19 -6 -3 30 9 19 17 37 17 40 1 3 11 20 24 38
13 17 21 32 17 32 -3 0 -3 5 0 11 8 12 18 5 21 -16z m524 -7 c0 -5 -20 -8 -44
-5 -29 2 -43 0 -40 -7 2 -6 -32 -47 -75 -90 -44 -44 -77 -84 -74 -90 4 -6 -1
-5 -10 2 -9 8 -21 10 -28 6 -25 -15 9 27 86 109 l80 84 53 0 c28 0 52 -5 52
-9z m-724 -17 c0 -11 -5 -17 -13 -14 -17 6 -17 20 0 26 6 3 12 6 12 6 1 1 1
-7 1 -18z m857 12 c-7 -2 -21 -2 -30 0 -10 3 -4 5 12 5 17 0 24 -2 18 -5z
m-81 -10 c-12 -2 -20 -9 -17 -14 3 -5 -1 -6 -9 -3 -27 11 -17 24 17 23 23 -1
26 -3 9 -6z m113 -3 c-3 -5 -14 -10 -23 -9 -14 0 -13 2 3 9 27 11 27 11 20 0z
m-895 -45 c0 -8 -4 -15 -10 -15 -5 0 -7 7 -4 15 4 8 8 15 10 15 2 0 4 -7 4
-15z m787 -16 c-15 -11 -25 -25 -22 -30 4 -5 -2 -6 -11 -2 -11 4 -15 2 -11 -4
9 -15 -16 -34 -32 -24 -10 6 -9 12 4 25 9 9 14 17 11 17 -22 5 -32 3 -42 -10
-9 -11 -12 -12 -19 -1 -5 8 -4 11 2 7 6 -4 13 -1 16 7 3 8 14 13 24 11 10 -1
23 1 28 5 6 4 19 10 30 13 42 10 49 6 22 -14z m-797 -15 c0 -8 -19 -13 -24 -6
-3 5 1 9 9 9 8 0 15 -2 15 -3z m1325 -4 c3 -5 1 -10 -4 -10 -6 0 -11 5 -11 10
0 6 2 10 4 10 3 0 8 -4 11 -10z m-1229 -55 c-9 -9 -16 -12 -16 -6 0 5 5 13 10
16 6 4 7 12 4 18 -5 9 -4 9 6 0 10 -9 10 -15 -4 -28z m1298 11 c-3 -8 -13 -17
-22 -21 -13 -5 -13 -2 3 15 21 24 26 25 19 6z m-1374 -18 c0 -10 -17 -10 -24
0 -3 5 1 9 9 9 8 0 15 -4 15 -9z m685 -8 c-10 -11 -21 -18 -23 -15 -3 3 3 12
14 20 27 20 30 18 9 -5z m-445 -5 c-7 -8 -24 -15 -39 -15 l-26 1 30 14 c40 18
50 18 35 0z m-86 -24 c3 -4 18 -7 33 -4 27 3 27 3 4 -7 -16 -7 -28 -7 -36 0
-6 5 -15 7 -18 3 -4 -3 -7 -1 -7 5 0 14 16 16 24 3z m1221 -11 c3 -5 2 -10 -4
-10 -5 0 -13 5 -16 10 -3 6 -2 10 4 10 5 0 13 -4 16 -10z"/>
<path d="M155 1400 c-10 -11 -15 -20 -11 -20 11 0 39 30 34 36 -3 2 -13 -5
-23 -16z"/>
<path d="M426 1188 c-30 -43 -11 -94 31 -86 40 7 43 108 3 108 -10 0 -26 -10
-34 -22z"/>
<path d="M305 925 c-33 -19 -56 -35 -51 -35 10 0 116 60 116 66 0 6 -1 6 -65
-31z"/>
<path d="M356 894 c-23 -23 -20 -30 4 -9 11 10 20 20 20 22 0 7 -9 2 -24 -13z"/>
<path d="M165 890 c-3 -5 -1 -10 4 -10 6 0 11 5 11 10 0 6 -2 10 -4 10 -3 0
-8 -4 -11 -10z"/>
<path d="M159 853 c-13 -16 -12 -17 4 -4 16 13 21 21 13 21 -2 0 -10 -8 -17
-17z"/>
<path d="M175 810 c-3 -6 -3 -10 1 -10 4 0 -1 -10 -12 -22 -10 -13 -12 -17 -4
-10 17 14 34 16 25 2 -3 -5 -2 -10 2 -10 5 0 13 8 20 18 9 15 7 21 -8 30 -11
7 -20 8 -24 2z"/>
<path d="M324 288 l-19 -23 23 19 c21 18 27 26 19 26 -2 0 -12 -10 -23 -22z"/>
<path d="M264 188 l-19 -23 23 19 c21 18 27 26 19 26 -2 0 -12 -10 -23 -22z"/>
<path d="M698 1693 c7 -3 16 -2 19 1 4 3 -2 6 -13 5 -11 0 -14 -3 -6 -6z"/>
<path d="M589 1677 c6 -8 7 -18 3 -22 -4 -5 -2 -5 5 -1 14 8 6 36 -9 36 -7 0
-6 -5 1 -13z"/>
<path d="M604 1555 c-10 -8 -14 -15 -8 -15 5 0 19 7 30 15 10 8 14 15 8 15 -5
0 -19 -7 -30 -15z"/>
<path d="M1554 1529 c-3 -5 2 -9 10 -9 24 0 19 -27 -6 -34 l-23 -7 23 -9 c24
-10 22 -30 -4 -30 -8 0 -14 -4 -14 -10 0 -5 7 -10 15 -10 19 0 19 -21 0 -46
-19 -25 -19 -34 1 -34 9 0 22 17 31 40 19 46 29 50 36 14 3 -16 0 -28 -9 -31
-23 -8 -16 -25 9 -21 21 3 22 7 22 97 l0 94 -43 2 c-23 1 -45 -1 -48 -6z m68
-24 c0 -5 -5 -11 -11 -13 -6 -2 -11 4 -11 13 0 9 5 15 11 13 6 -2 11 -8 11
-13z m2 -50 c3 -9 0 -15 -9 -15 -8 0 -15 7 -15 15 0 8 4 15 9 15 5 0 11 -7 15
-15z"/>
<path d="M1660 1433 c0 -62 4 -103 10 -103 6 0 10 38 10 95 0 81 2 95 16 95
13 0 15 -7 10 -34 -4 -19 -1 -45 5 -60 11 -22 10 -28 -6 -40 -23 -16 -8 -27
23 -15 26 10 27 20 7 59 -13 25 -13 32 0 64 9 20 14 37 13 37 -2 1 -22 2 -45
3 l-43 2 0 -103z"/>
<path d="M485 1500 c3 -5 8 -10 11 -10 2 0 4 5 4 10 0 6 -5 10 -11 10 -5 0 -7
-4 -4 -10z"/>
<path d="M610 1490 c-8 -5 -10 -10 -5 -10 6 0 17 5 25 10 8 5 11 10 5 10 -5 0
-17 -5 -25 -10z"/>
<path d="M429 1485 c-1 -5 -1 -13 -1 -17 1 -3 -6 -12 -16 -20 -15 -12 -16 -11
-3 5 8 10 9 17 3 17 -6 0 -14 -5 -17 -10 -4 -7 -12 -7 -18 -2 -7 4 -18 7 -24
6 -7 -1 -18 -2 -24 -3 -5 0 -7 -6 -4 -12 4 -6 13 -8 21 -5 7 3 19 -1 27 -8 24
-25 85 15 67 44 -6 8 -10 11 -11 5z"/>
<path d="M575 1460 c-4 -6 -11 -8 -16 -5 -5 4 -9 1 -9 -4 0 -15 11 -13 34 4
11 8 15 15 9 15 -7 0 -15 -5 -18 -10z"/>
<path d="M453 1435 c0 -8 3 -13 5 -10 3 3 16 -5 29 -17 17 -16 22 -18 18 -6
-4 11 0 18 14 23 12 3 21 11 21 16 0 6 -10 3 -22 -5 -26 -19 -42 -21 -32 -4 4
7 3 8 -4 4 -7 -4 -12 -2 -12 3 0 6 -4 11 -8 11 -5 0 -9 -7 -9 -15z"/>
<path d="M294 1425 c11 -8 16 -15 11 -15 -4 0 0 -9 10 -20 14 -15 21 -17 26
-8 5 7 -4 21 -24 35 -17 13 -33 23 -36 23 -3 0 3 -7 13 -15z"/>
<path d="M681 1398 c-10 -16 -10 -18 0 -12 9 5 10 2 5 -11 -5 -14 -4 -16 7 -7
8 7 16 9 20 6 3 -3 3 4 0 15 -8 30 -17 33 -32 9z"/>
<path d="M1178 1403 c7 -3 16 -2 19 1 4 3 -2 6 -13 5 -11 0 -14 -3 -6 -6z"/>
<path d="M1253 1359 c-8 -19 -16 -28 -24 -24 -6 4 -15 1 -20 -6 -13 -21 -11
-27 9 -25 9 0 16 -5 14 -12 -1 -8 2 -11 8 -7 8 5 8 11 0 21 -10 11 -7 13 16
11 22 -2 27 3 30 23 1 14 0 19 -2 13 -10 -24 -24 -13 -18 12 9 35 1 31 -13 -6z"/>
<path d="M1166 1365 c-3 -8 -1 -15 4 -15 6 0 10 7 10 15 0 8 -2 15 -4 15 -2 0
-6 -7 -10 -15z"/>
<path d="M701 1341 c-8 -15 -9 -21 -1 -21 6 0 8 -5 4 -11 -4 -7 -1 -10 6 -7
16 5 21 30 10 48 -6 9 -11 7 -19 -9z"/>
<path d="M1040 1299 c0 -5 5 -7 10 -4 6 3 10 8 10 11 0 2 -4 4 -10 4 -5 0 -10
-5 -10 -11z"/>
<path d="M805 1290 c-3 -6 1 -7 9 -4 18 7 21 14 7 14 -6 0 -13 -4 -16 -10z"/>
<path d="M1565 1228 c-1 -37 -8 -76 -17 -95 -14 -27 -14 -32 -1 -37 17 -7 43
49 43 94 0 17 5 30 13 31 6 1 34 2 60 4 55 3 56 3 59 36 3 23 1 24 -77 27
l-80 3 0 -63z m133 30 c3 -15 -5 -18 -52 -18 -42 0 -56 4 -56 14 0 30 103 33
108 4z"/>
<path d="M822 1260 c0 -14 2 -19 5 -12 2 6 2 18 0 25 -3 6 -5 1 -5 -13z"/>
<path d="M1420 1264 c0 -10 28 -33 33 -27 3 3 0 12 -8 19 -14 15 -25 18 -25 8z"/>
<path d="M886 1242 c-3 -5 1 -9 9 -9 8 0 12 4 9 9 -3 4 -7 8 -9 8 -2 0 -6 -4
-9 -8z"/>
<path d="M803 1226 c0 -9 4 -16 8 -16 5 0 5 -7 2 -17 -4 -11 -3 -14 5 -9 15 9
15 18 -1 40 -12 16 -14 16 -14 2z"/>
<path d="M900 1211 c-8 -6 -18 -7 -22 -5 -4 3 -8 0 -8 -5 0 -16 26 -13 40 4
14 17 11 19 -10 6z"/>
<path d="M1360 1210 c0 -5 5 -10 10 -10 6 0 10 5 10 10 0 6 -4 10 -10 10 -5 0
-10 -4 -10 -10z"/>
<path d="M1615 1163 c1 -27 3 -52 4 -56 0 -4 27 -7 58 -5 46 2 59 7 61 21 4
21 -14 22 -34 3 -7 -8 -22 -13 -31 -11 -10 2 -21 4 -25 4 -23 2 -2 25 38 43
31 13 43 23 36 30 -6 6 -20 4 -40 -6 -39 -20 -42 -20 -42 4 0 11 -6 20 -14 20
-10 0 -13 -13 -11 -47z"/>
<path d="M1016 1182 c-3 -5 1 -9 9 -9 8 0 12 4 9 9 -3 4 -7 8 -9 8 -2 0 -6 -4
-9 -8z"/>
<path d="M878 1161 c-3 -46 -3 -51 7 -51 6 0 11 8 11 17 1 10 3 24 5 32 2 7
-2 16 -8 18 -8 3 -14 -4 -15 -16z"/>
<path d="M1252 1108 c-18 -18 -15 -77 4 -85 29 -11 49 11 49 53 0 31 -4 40
-20 42 -11 1 -26 -3 -33 -10z"/>
<path d="M950 1090 c0 -5 5 -10 11 -10 5 0 7 5 4 10 -3 6 -8 10 -11 10 -2 0
-4 -4 -4 -10z"/>
<path d="M980 1091 c0 -6 4 -13 10 -16 6 -3 7 1 4 9 -7 18 -14 21 -14 7z"/>
<path d="M1583 1043 c-15 -5 -18 -43 -4 -43 5 0 11 9 14 20 3 11 10 20 16 20
20 0 23 -28 7 -52 -18 -25 -21 -48 -6 -48 6 0 10 6 10 14 0 7 7 19 15 26 42
34 0 85 -52 63z"/>
<path d="M717 1015 c-15 -14 -25 -25 -21 -25 4 0 -2 -10 -13 -22 -11 -13 -23
-31 -26 -40 -5 -15 -4 -16 13 -5 11 6 20 17 20 23 0 6 12 21 26 35 29 27 49
59 37 59 -4 0 -21 -12 -36 -25z"/>
<path d="M1690 998 c0 -60 15 -80 23 -31 10 58 8 73 -8 73 -11 0 -15 -11 -15
-42z"/>
<path d="M1590 905 c0 -8 9 -15 20 -15 11 0 20 7 20 15 0 8 -9 15 -20 15 -11
0 -20 -7 -20 -15z"/>
<path d="M1686 911 c-3 -5 1 -14 8 -20 16 -13 32 2 21 19 -8 12 -22 13 -29 1z"/>
<path d="M1077 833 c-3 -5 -2 -15 2 -22 7 -10 10 -10 16 -1 4 6 3 16 -3 22 -5
5 -12 6 -15 1z"/>
<path d="M434 815 c-4 -8 -4 -24 -1 -35 4 -14 -12 -33 -64 -77 -64 -53 -164
-158 -184 -193 -9 -17 76 77 87 95 4 7 46 45 93 85 76 64 87 71 103 59 15 -12
16 -12 5 2 -9 11 -9 19 -2 26 8 8 6 11 -7 10 -14 -2 -19 4 -18 21 1 26 -4 28
-12 7z"/>
<path d="M1167 802 c-24 -27 -21 -36 4 -11 11 11 19 23 16 25 -2 2 -11 -4 -20
-14z"/>
<path d="M1205 799 c-4 -6 -5 -12 -2 -15 2 -3 7 2 10 11 7 17 1 20 -8 4z"/>
<path d="M340 730 c-30 -21 -73 -58 -95 -82 l-40 -43 50 46 c28 25 71 61 98
78 26 18 47 34 47 36 0 7 -1 7 -60 -35z"/>
<path d="M990 609 c-22 -18 -22 -19 -3 -10 12 6 25 16 28 21 9 15 3 12 -25
-11z"/>
<path d="M1135 508 c-16 -19 -16 -20 -1 -7 16 15 21 12 75 -42 32 -33 64 -59
72 -59 9 0 6 5 -6 11 -11 6 -43 35 -71 65 l-51 54 -18 -22z"/>
<path d="M1365 451 c5 -17 4 -22 -5 -16 -9 5 -11 4 -6 -3 7 -11 17 -93 17
-135 0 -27 17 -10 28 28 11 40 4 85 -10 63 -6 -8 -9 -1 -9 22 0 19 -5 42 -11
50 -8 12 -9 10 -4 -9z"/>
<path d="M1432 390 c0 -14 2 -19 5 -12 2 6 2 18 0 25 -3 6 -5 1 -5 -13z"/>
<path d="M1329 306 c-2 -2 -29 -7 -59 -11 -59 -7 -79 -15 -39 -15 53 0 128 13
123 21 -5 9 -18 12 -25 5z"/>
<path d="M1425 200 c-3 -6 1 -7 9 -4 18 7 21 14 7 14 -6 0 -13 -4 -16 -10z"/>
<path d="M1415 171 c-3 -5 -1 -12 5 -16 5 -3 10 1 10 9 0 18 -6 21 -15 7z"/>
<path d="M1469 123 c-13 -16 -12 -17 4 -4 16 13 21 21 13 21 -2 0 -10 -8 -17
-17z"/>
<path d="M840 44 c-54 -43 -61 -50 -35 -36 22 12 93 71 85 71 -3 0 -25 -16
-50 -35z"/>
<path d="M885 25 c-52 -32 -43 -32 19 0 27 14 43 25 35 25 -8 0 -32 -11 -54
-25z"/>
</g>
</svg>
